<svg xmlns="http://www.w3.org/2000/svg" viewBox="0 0 24 24" fill="none">
  <path d="M20 11.6a8 8 0 0 1-11.8 7L4 19.8l1.2-4.2A8 8 0 1 1 20 11.6Z" stroke="currentColor" stroke-width="1.8" stroke-linejoin="round"/>
  <path d="M9.4 9.2c.2-.5.5-.6.9-.6h.7c.2 0 .4.1.5.4l.8 1.9c.1.3.1.6-.1.8l-.5.5c.4.9 1.2 1.6 2 2l.5-.4c.3-.2.6-.2.9-.1l1.8.8c.3.1.4.3.4.5v.7c0 .4-.1.7-.6.9-.6.3-1.8.5-3.7-.5-2.2-1.1-4-3.1-4.9-5.3-.7-1.7-.7-2.9-.4-3.5Z" stroke="currentColor" stroke-width="1.2" stroke-linecap="round" stroke-linejoin="round"/>
</svg>
